Format                           : AVI
Format/Info                      : Audio Video Interleave
File size                        : 150 MiB
Duration                         : 23mn 2s
Overall bit rate                 : 912 Kbps

Video
ID                               : 0
Format                           : AVC
Format/Info                      : Advanced Video Codec
Format profile                   : Baseline@L2.1
Format settings, CABAC           : No
Format settings, ReFrames        : 1 frame
Codec ID                         : avc1
Duration                         : 23mn 2s
Bit rate                         : 767 Kbps
Width                            : 320 pixels
Height                           : 180 pixels
Display aspect ratio             : 16:9
Frame rate                       : 23.976 fps
Color space                      : YUV
Chroma subsampling               : 4:2:0
Bit depth                        : 8 bits
Scan type                        : Progressive
Bits/(Pixel*Frame)               : 0.555
Stream size                      : 126 MiB (84%)

Audio
ID                               : 1
Format                           : MPEG Audio
Format version                   : Version 1
Format profile                   : Layer 3
Mode                             : Joint stereo
Mode extension                   : MS Stereo
Codec ID                         : 55
Codec ID/Hint                    : MP3
Duration                         : 23mn 2s
Bit rate mode                    : Constant
Bit rate                         : 128 Kbps
Channel(s)                       : 2 channels
Sampling rate                    : 48.0 KHz
Compression mode                 : Lossy
Delay relative to video          : 21ms
Stream size                      : 21.1 MiB (14%)
Alignment                        : Split accross interleaves
Interleave, duration             : 24 ms (0.58 video frame)